<svg xmlns="http://www.w3.org/2000/svg" width="60" height="60" viewBox="0 0 60 60">
  <defs>
    <style>
      .cls-1 {
        fill: #fff;
      }

      .cls-1, .cls-2 {
        fill-rule: evenodd;
      }
    </style>
  </defs>
  <g id="Group_3" data-name="Group 3" transform="translate(4562 -15157)">
    <g id="github" transform="translate(-4562 15157)">
      <path id="Path_5" data-name="Path 5" class="cls-1" d="M30,60A30,30,0,1,0,0,30,30,30,0,0,0,30,60Z"/>
      <path id="Path_6" data-name="Path 6" class="cls-2" d="M25.425,47.517c0-.45-.016-1.64-.025-3.22-5.135,1.143-6.219-2.538-6.219-2.538a4.982,4.982,0,0,0-2.05-2.769c-1.676-1.175.127-1.15.127-1.15a3.888,3.888,0,0,1,2.828,1.951,3.877,3.877,0,0,0,5.373,1.573,4.085,4.085,0,0,1,1.172-2.531c-4.1-.478-8.409-2.1-8.409-9.356a7.422,7.422,0,0,1,1.9-5.079,6.967,6.967,0,0,1,.181-5.01s1.55-.509,5.076,1.941a17.064,17.064,0,0,1,9.245,0c3.524-2.45,5.072-1.941,5.072-1.941a6.954,6.954,0,0,1,.184,5.01,7.409,7.409,0,0,1,1.9,5.079c0,7.272-4.317,8.872-8.43,9.341A4.575,4.575,0,0,1,34.6,42.324c0,2.531-.024,4.573-.024,5.193,0,.507.333,1.095,1.27.91A18.9,18.9,0,0,0,48.462,30.468,18.7,18.7,0,0,0,30,11.538a18.7,18.7,0,0,0-18.461,18.93A18.9,18.9,0,0,0,24.165,48.429C25.088,48.6,25.425,48.018,25.425,47.517Z"/>
    </g>
  </g>
</svg>
