<svg xmlns="http://www.w3.org/2000/svg" width="60" height="60" viewBox="0 0 60 60">
  <defs>
    <style>
      .cls-1 {
        fill: #fff;
      }

      .cls-1, .cls-2 {
        fill-rule: evenodd;
      }
    </style>
  </defs>
  <g id="Group_3" data-name="Group 3" transform="translate(3247 -17431)">
    <g id="linkedin" transform="translate(-3247 17431)">
      <path id="Linkedin-2" data-name="Linkedin" class="cls-1" d="M30,60A30,30,0,1,0,0,30,30,30,0,0,0,30,60Z"/>
      <path id="Path_5" data-name="Path 5" class="cls-2" d="M21.883,43.823v-18.3H16.227v18.3Zm0-24.785a2.781,2.781,0,0,0-2.9-2.884,2.79,2.79,0,0,0-2.932,2.884,2.774,2.774,0,0,0,2.864,2.885h.034A2.791,2.791,0,0,0,21.883,19.038ZM31.11,43.823V33.4a4.241,4.241,0,0,1,.2-1.514,3.4,3.4,0,0,1,3.184-2.27c2.246,0,3.654,1.274,3.654,3.784V43.823h5.694v-10.7c0-5.734-3.061-8.4-7.144-8.4a6.18,6.18,0,0,0-5.633,3.146l.041-2.447H25.425c.082,1.752,0,18.409,0,18.409Z"/>
    </g>
  </g>
</svg>
